<svg width="48" height="48" viewBox="0 0 48 48" fill="none" xmlns="http://www.w3.org/2000/svg">
<path d="M24 48C37.2548 48 48 37.2548 48 24C48 10.7452 37.2548 0 24 0C10.7452 0 0 10.7452 0 24C0 37.2548 10.7452 48 24 48Z" fill="#DFF2FF"/>
<path d="M32.574 15.198C32.4862 15.1219 32.3831 15.0655 32.2717 15.0327C32.1602 14.9999 32.043 14.9915 31.928 15.008L20.581 16.63C20.3877 16.6575 20.2108 16.7539 20.0829 16.9014C19.955 17.049 19.8847 17.2377 19.885 17.433V26.934C19.3897 26.6452 18.8264 26.4933 18.253 26.494C17.3906 26.4951 16.5638 26.8381 15.954 27.448C15.3441 28.0578 15.0011 28.8846 15 29.747C15.0011 30.6094 15.3441 31.4362 15.954 32.0461C16.5638 32.6559 17.3906 32.9989 18.253 33C19.1154 32.9989 19.9422 32.6559 20.552 32.0461C21.1619 31.4362 21.5049 30.6094 21.506 29.747V21.377L31.232 19.987V25.314C30.7371 25.025 30.1742 24.8728 29.601 24.873C28.7384 24.8738 27.9113 25.2167 27.3013 25.8266C26.6913 26.4365 26.3481 27.2634 26.347 28.126C26.3481 28.9886 26.6913 29.8155 27.3013 30.4254C27.9113 31.0353 28.7384 31.3782 29.601 31.379C30.4634 31.3779 31.2902 31.0349 31.9 30.4251C32.5099 29.8152 32.8529 28.9884 32.854 28.126V15.81C32.8541 15.6937 32.8291 15.5788 32.7808 15.473C32.7325 15.3672 32.6619 15.2731 32.574 15.197V15.198Z" fill="#18A0FB"/>
</svg>
